<svg width="24" height="24" viewBox="0 0 24 24" fill="none" xmlns="http://www.w3.org/2000/svg">
<path d="M20.7734 15.8086V2.51961C20.7557 1.40767 19.8909 0.512695 18.8055 0.512695H5.26835C2.34737 0.557896 0 3.00778 0 6.00911C0 7.02161 0.264742 7.88946 0.670679 8.64884C1.01484 9.28165 1.55315 9.8783 2.08263 10.3213C2.23265 10.4478 2.16206 10.3936 2.62094 10.6829C3.25632 11.0806 3.97994 11.2795 3.97994 11.2795L3.97112 19.2258C3.98877 19.6055 4.02407 19.9671 4.12114 20.3016C4.42118 21.4226 5.1801 22.2814 6.2126 22.6972C6.64501 22.869 7.13037 22.9865 7.65103 22.9956L18.4613 23.0317C20.6145 23.0317 22.3618 21.2418 22.3618 19.0269C22.3706 17.7161 21.7353 16.5409 20.7734 15.8086Z" fill="#FFEEDA"/>
<path d="M21.038 19.1264C20.9939 20.5457 19.8555 21.6847 18.4612 21.6847L11.022 21.6576C11.6132 20.9525 11.975 20.0394 11.975 19.045C11.975 17.4811 11.0661 16.4053 11.0661 16.4053H18.47C19.8908 16.4053 21.0468 17.5895 21.0468 19.045L21.038 19.1264Z" fill="#EBC28E"/>
<path d="M2.78861 9.2004C1.93261 8.3687 1.33253 7.29292 1.33253 6.01826V5.88266C1.40313 3.70398 3.15042 1.95019 5.27718 1.88691H18.8143C19.1673 1.90499 19.4497 2.15812 19.4497 2.52876V14.2629C19.7585 14.3172 19.9085 14.3624 20.2086 14.4709C20.4469 14.5613 20.7734 14.7511 20.7734 14.7511V2.52876C20.7557 1.41682 19.8909 0.521851 18.8055 0.521851H5.26835C2.34737 0.567051 0 3.01693 0 6.01826C0 7.76301 0.776576 9.25464 2.04733 10.3033C2.13558 10.3757 2.215 10.4661 2.44445 10.4661C2.84156 10.4661 3.12395 10.1406 3.1063 9.78801C3.09747 9.48968 2.97393 9.3812 2.78861 9.2004Z" fill="#101010"/>
<path d="M18.4613 15.0311H7.8452C7.1304 15.0401 6.55679 15.6278 6.55679 16.36V17.9239C6.57444 18.6472 7.17453 19.2619 7.88933 19.2619H8.67472V17.9239H7.88933V16.3962C7.88933 16.3962 8.08347 16.3962 8.32174 16.3962C9.66309 16.3962 10.6515 17.6708 10.6515 19.0359C10.6515 20.2473 9.57484 21.7931 7.7746 21.6666C6.17733 21.5581 5.31251 20.1026 5.31251 19.0359V5.78306C5.31251 5.18641 4.83598 4.69824 4.25355 4.69824H3.19458V6.05427H3.97998V19.0449C3.93586 21.6847 5.81552 23.0136 7.7746 23.0136L18.4702 23.0497C20.6234 23.0497 22.3707 21.2598 22.3707 19.0449C22.3707 16.8301 20.6146 15.0311 18.4613 15.0311ZM21.0381 19.1263C20.994 20.5456 19.8556 21.6847 18.4613 21.6847L11.0221 21.6575C11.6134 20.9524 11.9752 20.0393 11.9752 19.0449C11.9752 17.481 11.0662 16.4052 11.0662 16.4052H18.4702C19.8909 16.4052 21.047 17.5895 21.047 19.0449L21.0381 19.1263Z" fill="#101010"/>
<path d="M15.6019 6.29865H7.5979V4.94263H15.6019C15.9637 4.94263 16.2638 5.24095 16.2638 5.62064C16.2638 5.99128 15.9726 6.29865 15.6019 6.29865Z" fill="#101010"/>
<path d="M15.6019 12.6807H7.5979V11.3246H15.6019C15.9637 11.3246 16.2638 11.623 16.2638 12.0027C16.2638 12.3733 15.9726 12.6807 15.6019 12.6807Z" fill="#101010"/>
<path d="M17.0139 9.48969H7.5979V8.13367H17.005C17.3669 8.13367 17.6669 8.43199 17.6669 8.81168C17.6757 9.18232 17.3757 9.48969 17.0139 9.48969Z" fill="#101010"/>
</svg>
