<svg width="83" height="26" viewBox="0 0 83 26" fill="none" xmlns="http://www.w3.org/2000/svg">
    <path d="M17.2216 0.424072L18.9718 11.1761H19.2411L20.8567 0.424072H27.0499L23.8187 19.2401H15.4713L13.7211 9.29447H13.4518L11.7016 19.2401H3.35427L0.123047 0.424072H6.31622L7.93183 11.1761H8.20109L9.95134 0.424072H17.2216ZM42.1163 19.2401H36.7309V11.9825C36.7309 11.6419 36.5874 11.3374 36.3001 11.0686C36.0308 10.7818 35.7257 10.6385 35.3846 10.6385C35.0434 10.6385 34.7294 10.7818 34.4421 11.0686C34.1729 11.3374 34.0382 11.6419 34.0382 11.9825V19.2401H28.6529V0.424072H34.0382V7.14407H34.3075C34.4871 6.89325 34.7025 6.66914 34.9537 6.47207C35.1692 6.31079 35.4473 6.15842 35.7885 6.01511C36.1296 5.87181 36.5335 5.80007 37.0002 5.80007C37.6644 5.80007 38.3016 5.95245 38.912 6.25703C39.5402 6.54381 40.0878 6.95591 40.5545 7.49351C41.0392 8.03111 41.4162 8.68513 41.6854 9.45575C41.9727 10.2084 42.1163 11.0506 42.1163 11.9825V19.2401ZM49.7054 11.2567C49.3105 11.6688 49.113 12.1795 49.113 12.7889C49.113 13.3982 49.3105 13.9089 49.7054 14.321C50.1183 14.7331 50.594 14.9393 51.1326 14.9393C51.6711 14.9393 52.1378 14.7331 52.5327 14.321C52.9456 13.9089 53.1521 13.3982 53.1521 12.7889C53.1521 12.1795 52.9456 11.6688 52.5327 11.2567C52.1378 10.8446 51.6711 10.6385 51.1326 10.6385C50.594 10.6385 50.1183 10.8446 49.7054 11.2567ZM44.2393 15.5844C43.8982 14.7242 43.7277 13.7923 43.7277 12.7889C43.7277 11.7854 43.8982 10.8535 44.2393 9.99335C44.5804 9.13319 45.0291 8.39853 45.5856 7.78919C46.16 7.16205 46.8063 6.67821 47.5244 6.33767C48.2603 5.97933 49.0143 5.80007 49.7862 5.80007C50.3606 5.80007 50.8364 5.88962 51.2133 6.06887C51.6083 6.23015 51.9314 6.40941 52.1827 6.60647C52.47 6.83949 52.7032 7.10829 52.8828 7.41287H53.1521V6.33767H58.2682V19.2401H53.1521V18.1649H52.8828C52.7032 18.4695 52.47 18.7383 52.1827 18.9713C51.9314 19.1683 51.6083 19.3476 51.2133 19.5089C50.8364 19.6881 50.3606 19.7777 49.7862 19.7777C49.0143 19.7777 48.2603 19.5984 47.5244 19.2401C46.8063 18.8995 46.16 18.4248 45.5856 17.8154C45.0291 17.1883 44.5804 16.4446 44.2393 15.5844ZM60.9504 5.26247H59.6041V0.424072H66.3358V19.2401H60.9504V5.26247ZM67.9398 6.33767H73.3251L75.0754 14.4017H75.6139L77.0949 6.33767H82.4803L80.0568 19.2401C79.6799 21.265 78.9707 22.7971 77.9296 23.8366C76.8884 24.8938 75.6228 25.4225 74.1329 25.4225C73.72 25.4225 73.3341 25.3956 72.9751 25.3418C72.616 25.2881 72.3019 25.2254 72.0327 25.1537C71.7095 25.0819 71.4223 24.9924 71.171 24.8849L71.7095 20.3153C71.8531 20.369 72.0057 20.4139 72.1673 20.4497C72.4724 20.5392 72.7686 20.5841 73.0559 20.5841C73.4687 20.5841 73.8007 20.4586 74.0522 20.2078C74.3214 19.9747 74.5278 19.6522 74.6715 19.2401H70.9017L67.9398 6.33767Z" fill="white"/>
    </svg>
    