<svg width="38" height="38" viewBox="0 0 38 38" fill="none" xmlns="http://www.w3.org/2000/svg">
    <g clip-path="url(#clip0_35_715)">
    <path d="M37.7298 17.9601C37.7207 17.9287 37.7105 17.9011 37.6998 17.8754C38.0934 25.8446 27.4335 30.9957 19.8986 30.9957C15.8513 30.9957 14.8922 27.5165 13.3938 23.8725C13.3563 23.739 13.3165 23.6008 13.2727 23.4557C11.7089 18.2756 3.038 15.9003 0.719773 18.0578C0.356473 18.3764 0.148438 18.8219 0.148438 19.4093C0.148438 19.4844 0.149773 19.559 0.152074 19.6333C0.305262 29.3025 10.3373 37.1041 20.035 37.1041C29.8076 37.1041 37.7298 29.1819 37.7298 19.4093C37.7298 19.0635 37.7797 18.1328 37.7298 17.9601Z" fill="#94DEF7"/>
    <path d="M37.7005 17.9027C37.7001 17.8936 37.7002 17.8846 37.6998 17.8755C37.7104 17.9009 37.7205 17.928 37.7295 17.959C37.7099 17.7321 37.6825 17.5099 37.6511 17.2903C37.6487 17.2696 37.647 17.2491 37.6444 17.2284C37.6437 17.228 37.6429 17.2275 37.6421 17.2271C36.9946 12.8638 34.0737 9.95804 31.8613 8.77536C31.7936 8.66871 31.7132 8.54825 31.621 8.41629C31.6196 8.41043 31.6184 8.40501 31.617 8.39892C31.6046 8.34207 31.5911 8.27906 31.5762 8.21056C31.5628 8.14302 31.5483 8.06991 31.5328 7.99183C31.5061 7.83538 31.4778 7.66304 31.4575 7.48165C31.4369 7.30063 31.4236 7.11086 31.4243 6.92828C31.4235 6.74555 31.4434 6.57181 31.4759 6.43228C31.5054 6.28948 31.5577 6.19656 31.5955 6.13674C31.6015 6.13013 31.6074 6.1239 31.612 6.11699L31.6186 6.1066C31.6219 6.10408 31.6251 6.10148 31.6275 6.09851C31.6328 6.0928 31.6366 6.08627 31.6409 6.07996C31.6474 6.07506 31.653 6.06979 31.6579 6.06393C31.6659 6.05124 31.6827 6.04218 31.6911 6.02763C31.6993 6.02214 31.7069 6.01606 31.7139 6.00938C31.7199 6.00218 31.7265 5.99438 31.7371 5.98793C31.7463 5.98095 31.7552 5.97338 31.7635 5.96514C31.7715 5.95668 31.7865 5.95082 31.7966 5.94213C31.8082 5.9339 31.8174 5.92432 31.8302 5.91571C31.8444 5.9077 31.8584 5.89931 31.8722 5.8904L31.8928 5.87675L31.8979 5.87326L31.9004 5.87148C31.8623 5.89085 31.9536 5.84424 31.9455 5.84825L31.9486 5.84639L31.9734 5.8317L32.072 5.77306L32.1212 5.74382L32.2007 5.69417L32.3614 5.58685C32.4181 5.54937 32.4573 5.51694 32.5018 5.48272C32.5456 5.4491 32.5877 5.41362 32.6302 5.37904C32.7121 5.30615 32.7937 5.23394 32.8692 5.15712C33.0192 5.00267 33.1562 4.8414 33.2726 4.67396C33.5077 4.33983 33.6726 3.99174 33.7792 3.65998C33.8854 3.32748 33.9367 3.01124 33.9537 2.72408C33.9713 2.43678 33.9523 2.17739 33.9189 1.95243C33.9029 1.84006 33.8785 1.73519 33.8577 1.64019C33.8325 1.54445 33.8078 1.45784 33.7821 1.38021C33.7288 1.22464 33.6769 1.10567 33.6355 1.0244C33.5953 0.943279 33.5668 0.899713 33.5677 0.895705C33.5677 0.744967 33.4456 0.622803 33.2948 0.622803C33.1441 0.622803 33.0219 0.744967 33.0219 0.895705C33.0227 0.891697 32.9944 0.92517 32.9466 0.988182C32.9001 1.04978 32.8317 1.14018 32.7448 1.25522C32.7028 1.31133 32.6572 1.37241 32.6067 1.43698C32.5592 1.50215 32.5034 1.57006 32.4487 1.64131C32.3373 1.78329 32.2117 1.9344 32.0799 2.08424C31.9475 2.23387 31.8064 2.38127 31.6619 2.51508C31.517 2.64868 31.3679 2.76617 31.2214 2.86547C31.1494 2.91676 31.0742 2.95913 31.0026 3.00226C30.9647 3.02118 30.9292 3.04211 30.893 3.06178C30.8741 3.07054 30.8547 3.07848 30.8369 3.08842C30.8195 3.0974 30.7984 3.11069 30.7894 3.11121C30.7778 3.1147 30.7668 3.11863 30.7562 3.12323L30.7381 3.13296L30.6863 3.15722L30.5824 3.20591L30.5563 3.21808L30.553 3.21964C30.5428 3.22476 30.6321 3.17934 30.5919 3.19983L30.5818 3.20487L30.5616 3.21497L30.481 3.25579L30.3203 3.33965C30.2667 3.36956 30.2128 3.40422 30.1595 3.43718C30.1061 3.47169 30.0535 3.50346 30.0011 3.54294L29.8455 3.66221C29.4318 3.98528 29.0793 4.45962 28.8794 4.9571C28.7843 5.19846 28.7218 5.44079 28.6851 5.67599C28.4092 5.51434 28.1124 5.36293 27.7839 5.23631C27.3868 5.08179 26.9404 4.95955 26.4235 4.93773C26.1666 4.92615 25.8894 4.95035 25.6121 5.01522C25.3343 5.08246 25.0562 5.1946 24.8125 5.34757L24.7225 5.40598L24.7002 5.42082C24.6924 5.42594 24.746 5.39121 24.722 5.40687L24.7191 5.40902L24.7133 5.41325L24.69 5.43017C24.659 5.45274 24.6281 5.47522 24.5973 5.49756L24.5431 5.53638C24.5268 5.54729 24.5189 5.55738 24.4963 5.5703C24.4186 5.62641 24.34 5.67287 24.2634 5.71829C24.1097 5.80639 23.9575 5.87704 23.8039 5.93174C23.7272 5.95839 23.6504 5.98437 23.5744 6.00218C23.4981 6.02541 23.4233 6.03669 23.3499 6.05265C23.2039 6.07773 23.0658 6.09413 22.9498 6.10126C22.8321 6.11262 22.7397 6.11017 22.6763 6.11506C22.6147 6.11662 22.586 6.1213 22.5986 6.12872C22.3231 5.95653 21.9601 6.04025 21.7879 6.31575C21.6158 6.59125 21.6995 6.95418 21.975 7.12637C21.9877 7.13342 22.016 7.20244 22.0765 7.31036C22.1377 7.41582 22.2319 7.56404 22.3786 7.72413C22.5258 7.88177 22.7244 8.06123 22.9913 8.21204C23.2566 8.36463 23.5903 8.50068 23.9808 8.56273C24.3701 8.63026 24.8145 8.62165 25.2606 8.52369C25.4837 8.47522 25.7049 8.40211 25.9207 8.31201L25.9616 8.29442L26.0076 8.27231L26.0998 8.22703L26.1921 8.18042L26.2657 8.14139C26.2667 8.14087 26.2676 8.14035 26.2687 8.13983C26.2886 8.14228 26.3236 8.14599 26.3729 8.15638C26.4326 8.1707 26.5106 8.18926 26.597 8.21931C26.772 8.2758 26.9818 8.36694 27.1995 8.4724C27.3072 8.52725 27.4207 8.58091 27.5317 8.64184C27.6434 8.70174 27.7528 8.76772 27.8659 8.82932C27.9779 8.8924 28.0876 8.95868 28.1956 9.02548C28.3058 9.08983 28.4132 9.15573 28.5172 9.22208C28.6227 9.28851 28.7253 9.35315 28.8246 9.41565C28.9244 9.47992 29.0209 9.54204 29.1135 9.60171C29.4319 9.81101 29.7043 9.9901 29.9129 10.1272C29.9204 10.1373 29.9274 10.1471 29.9351 10.1573C31.5367 11.4253 32.609 13.3319 32.7659 15.493C32.6918 15.4297 32.6188 15.3705 32.5527 15.3151C32.3882 15.184 32.25 15.0787 32.1495 15.0065C32.0456 14.9325 31.9861 14.8901 31.9861 14.8901C31.8327 14.7812 31.6207 14.774 31.458 14.8883C31.2514 15.0335 31.2016 15.3186 31.3468 15.5252L31.3705 15.5589C31.3705 15.5589 31.4048 15.6077 31.4648 15.6931C31.5272 15.7816 31.6141 15.9133 31.7141 16.0717C31.7622 16.1528 31.8169 16.2379 31.8692 16.3314C31.9221 16.4244 31.9781 16.5216 32.0305 16.6246C32.0857 16.726 32.137 16.8328 32.188 16.9406C32.242 17.0473 32.2838 17.1595 32.3319 17.2679C32.3763 17.3776 32.4138 17.4878 32.4533 17.5941C32.484 17.7018 32.5189 17.8059 32.5438 17.9057C32.5452 17.9127 32.5468 17.9196 32.5483 17.9266C32.495 18.1326 32.433 18.3351 32.3632 18.5339C32.3122 18.6165 32.2626 18.7016 32.2158 18.7912C28.8401 25.2585 22.5164 24.639 18.7931 19.0155C17.5132 17.0825 15.2259 15.7711 12.7986 15.0496C11.4108 14.4892 9.74603 14.2439 8.00382 14.2439C4.0323 14.2439 1.15566 14.7135 0.952148 17.8713C3.22873 16.285 9.73379 17.89 12.3771 21.6465C12.7586 22.3753 13.0868 23.1253 13.3925 23.8686C13.3929 23.87 13.3934 23.8714 13.3937 23.8727C13.6435 24.4801 13.8783 25.0815 14.1149 25.6643C14.1441 25.7362 14.1734 25.8078 14.2026 25.8791C14.2231 25.929 14.2435 25.9799 14.264 26.0294C14.2642 26.0293 14.2643 26.0291 14.2645 26.0289C15.2344 28.3665 16.2926 30.3202 18.5752 30.8522C18.5786 30.8531 18.5821 30.8538 18.5855 30.8546C18.6371 30.8666 18.6895 30.8778 18.7425 30.8882C18.7502 30.8898 18.7581 30.8913 18.766 30.8928C18.8146 30.9021 18.8638 30.9109 18.9135 30.919C18.9249 30.9209 18.9363 30.9228 18.9478 30.9246C18.9941 30.9319 19.041 30.9386 19.0882 30.9447C19.1029 30.9467 19.1174 30.9486 19.1321 30.9504C19.1767 30.9559 19.2218 30.9608 19.2672 30.9652C19.2846 30.9669 19.3017 30.9688 19.3192 30.9704C19.3631 30.9743 19.4075 30.9776 19.4521 30.9806C19.4711 30.9819 19.4899 30.9835 19.5091 30.9846C19.5549 30.9873 19.6014 30.9892 19.648 30.9909C19.6661 30.9916 19.6839 30.9926 19.7022 30.9931C19.7669 30.995 19.8323 30.996 19.8986 30.996C20.018 30.996 20.1381 30.9947 20.259 30.9921C20.2996 30.9912 20.3408 30.9894 20.3817 30.9882C20.4623 30.9859 20.5429 30.9838 20.6241 30.9804C20.6725 30.9784 20.7214 30.9754 20.77 30.9729C20.8443 30.9692 20.9185 30.9658 20.9932 30.9611C21.0449 30.9579 21.0971 30.9537 21.1491 30.9501C21.2214 30.9449 21.2936 30.9402 21.3663 30.9342C21.4198 30.9298 21.4738 30.9245 21.5274 30.9196C21.5991 30.9132 21.6705 30.907 21.7425 30.8997C21.7977 30.8942 21.8533 30.8877 21.9086 30.8816C21.9796 30.8739 22.0505 30.8664 22.1217 30.8578C22.178 30.8511 22.2345 30.8435 22.2909 30.8362C22.3618 30.8272 22.4325 30.8183 22.5036 30.8084C22.5611 30.8004 22.6188 30.7917 22.6764 30.7832C22.7467 30.7729 22.8169 30.7627 22.8874 30.7517C22.901 30.7495 22.9146 30.7477 22.9283 30.7456C22.9476 30.7818 22.9668 30.8177 22.9866 30.8547C23.0198 30.9165 23.0535 30.9795 23.0877 31.0434C23.1245 31.1071 23.1619 31.1718 23.1998 31.2375C23.2386 31.3043 23.2779 31.372 23.3177 31.4406C23.361 31.5095 23.405 31.5793 23.4493 31.6498C23.4954 31.7214 23.542 31.7939 23.5891 31.867C23.6358 31.9413 23.6871 32.0124 23.7411 32.0881C23.7947 32.163 23.8488 32.2384 23.9032 32.3144C23.9604 32.3915 24.0176 32.4696 24.079 32.5451C24.1379 32.6209 24.2055 32.6995 24.2692 32.777C24.333 32.8546 24.3989 32.9328 24.4694 33.0118C24.5415 33.0891 24.6103 33.1656 24.6869 33.2427C24.7632 33.3194 24.8396 33.3963 24.9163 33.4734C25.0754 33.6282 25.2435 33.7731 25.423 33.9169C25.5963 34.0615 25.7866 34.1999 25.9802 34.3261C26.0796 34.3879 26.1788 34.4495 26.2777 34.5109C26.3775 34.5709 26.4821 34.6266 26.5863 34.6787C26.6387 34.7047 26.6894 34.7317 26.7426 34.7561C26.7961 34.7798 26.8495 34.8034 26.9027 34.8269C27.0103 34.8718 27.1121 34.9225 27.2219 34.9592C27.3308 34.9951 27.439 35.0309 27.5464 35.0664C27.6535 35.1005 27.7633 35.1257 27.8694 35.154C28.0829 35.2096 28.299 35.2343 28.5036 35.2672C28.6063 35.282 28.7105 35.2827 28.8108 35.2899C28.9116 35.2938 29.0099 35.304 29.107 35.3005C29.2035 35.3009 29.2996 35.2945 29.3925 35.2905C29.4389 35.288 29.485 35.2856 29.5306 35.2833C29.5758 35.2784 29.6206 35.2735 29.665 35.2687C29.7533 35.26 29.8404 35.2449 29.9245 35.2327C29.9664 35.2261 30.0079 35.2196 30.049 35.2131C30.0895 35.2044 30.1297 35.1959 30.1694 35.1874C30.2484 35.1712 30.3257 35.1495 30.4002 35.1312C30.4747 35.1112 30.5472 35.0955 30.6162 35.0717C30.7548 35.0245 30.8839 34.9771 31.0033 34.933C31.241 34.833 31.4391 34.7312 31.5986 34.6422C31.7568 34.5477 31.8764 34.4608 31.9574 34.4058C31.9979 34.3787 32.0284 34.3541 32.0489 34.3385C32.0694 34.3227 32.0799 34.3146 32.0799 34.3146C32.0936 34.3039 32.1079 34.291 32.12 34.2777C32.2351 34.1513 32.2259 33.9553 32.0995 33.8402L32.0318 33.7786C32.0318 33.7786 32.0203 33.7681 31.9979 33.7477C31.9755 33.7275 31.9423 33.6957 31.9002 33.6604C31.8792 33.6422 31.8558 33.6219 31.83 33.5995C31.8047 33.5786 31.777 33.5559 31.7471 33.5313C31.6878 33.4803 31.6209 33.4299 31.5475 33.3712C31.4765 33.313 31.3979 33.2486 31.3124 33.1784C31.2295 33.1098 31.1402 33.0493 31.0509 32.9693C30.9642 32.8987 30.872 32.8234 30.7748 32.7442C30.7269 32.7098 30.682 32.6644 30.6351 32.6259C30.5885 32.5872 30.5421 32.545 30.495 32.5073C30.3086 32.3483 30.1284 32.1824 29.9597 32.0225C29.9153 31.987 29.8787 31.9371 29.8371 31.9001C29.7977 31.8613 29.7579 31.8219 29.7176 31.7821C29.6795 31.7418 29.6428 31.6994 29.6047 31.6625C29.5653 31.6276 29.5309 31.5846 29.4953 31.5455C29.3499 31.3947 29.2174 31.2423 29.0758 31.0962C28.9344 30.9517 28.788 30.7982 28.6256 30.6363C28.4625 30.4765 28.2877 30.3018 28.0985 30.111C27.9126 29.9274 27.7131 29.7376 27.5019 29.5373C27.6002 29.5008 27.6981 29.4635 27.796 29.4256C27.8289 29.4129 27.8616 29.3998 27.8945 29.3869C27.9753 29.3553 28.0559 29.3232 28.1365 29.2907C28.1738 29.2756 28.2111 29.2605 28.2484 29.2452C28.3493 29.2039 28.4498 29.1619 28.5501 29.1192C28.5678 29.1116 28.5855 29.104 28.6032 29.0964C28.7022 29.0539 28.801 29.0105 28.8993 28.9667C28.9346 28.951 28.9699 28.935 29.0052 28.9191C29.0881 28.8817 29.1706 28.8438 29.253 28.8054C29.2809 28.7925 29.3089 28.7796 29.3367 28.7666C29.4426 28.7167 29.548 28.6661 29.6529 28.6147C29.6809 28.601 29.7086 28.587 29.7366 28.5732C29.8191 28.5324 29.9012 28.4911 29.9831 28.4493C30.0145 28.4332 30.0459 28.4173 30.0772 28.4011C30.1825 28.3467 30.2876 28.2918 30.3918 28.2357C30.3988 28.232 30.4058 28.228 30.4128 28.2242C30.5115 28.1711 30.6095 28.1171 30.7071 28.0625C30.7364 28.0462 30.7654 28.0297 30.7945 28.0133C30.8801 27.9649 30.9652 27.9161 31.0499 27.8667C31.0696 27.8551 31.0896 27.8437 31.1093 27.8321C31.212 27.7717 31.3138 27.7105 31.415 27.6486C31.4369 27.6352 31.4586 27.6216 31.4804 27.6081C31.5634 27.5569 31.6458 27.5051 31.7277 27.4529C31.7521 27.4373 31.7766 27.4218 31.8009 27.406C31.9018 27.341 32.0021 27.2754 32.1013 27.2089C32.1044 27.2068 32.1073 27.2048 32.1103 27.2028C32.2061 27.1384 32.3008 27.0731 32.395 27.0073C32.4178 26.9913 32.4404 26.9754 32.4631 26.9593C32.5496 26.8983 32.6354 26.8367 32.7204 26.7744C32.7313 26.7664 32.7423 26.7586 32.7532 26.7506C32.8498 26.6795 32.9453 26.6075 33.04 26.5348C33.0564 26.5222 33.0725 26.5095 33.0889 26.4968C33.1692 26.4346 33.2489 26.3718 33.3277 26.3084C33.3451 26.2944 33.3627 26.2804 33.3801 26.2663C33.4735 26.1906 33.5661 26.1143 33.6572 26.0371C33.6573 26.037 33.6575 26.0369 33.6575 26.0368C33.7466 25.9613 33.8342 25.8849 33.9211 25.8079C33.938 25.7929 33.9549 25.7778 33.9718 25.7628C34.0552 25.6881 34.1379 25.6129 34.2191 25.5369C34.2225 25.5338 34.2259 25.5308 34.2292 25.5276C34.3164 25.446 34.4022 25.3634 34.4869 25.2801C34.4987 25.2685 34.5102 25.2568 34.522 25.2452C34.5959 25.1721 34.6686 25.0983 34.7405 25.0239C34.7522 25.0118 34.7641 24.9997 34.7757 24.9875C34.9374 24.8187 35.0937 24.6467 35.2445 24.4718C35.2566 24.4577 35.2687 24.4435 35.2808 24.4294C35.4314 24.2532 35.5762 24.074 35.7149 23.8917C35.7233 23.8807 35.7314 23.8697 35.7397 23.8586C35.8027 23.7751 35.8645 23.691 35.925 23.6063C35.9322 23.5962 35.9395 23.5861 35.9467 23.5759C36.0791 23.389 36.2049 23.199 36.3242 23.0061C36.3325 22.9926 36.3409 22.979 36.3491 22.9655C36.4675 22.7723 36.579 22.576 36.6833 22.3769C36.6891 22.3657 36.6949 22.3545 36.7006 22.3433C36.7487 22.2507 36.7953 22.1574 36.8403 22.0635C36.8443 22.055 36.8486 22.0464 36.8526 22.0378C36.9494 21.8342 37.0384 21.6276 37.1198 21.4183C37.1252 21.4046 37.1304 21.391 37.1357 21.3773C37.2158 21.1685 37.2882 20.9569 37.3523 20.7425C37.3559 20.7304 37.3594 20.7181 37.363 20.706C37.3926 20.6055 37.4205 20.5044 37.4464 20.4027C37.4483 20.395 37.4505 20.3874 37.4524 20.3798C37.4806 20.2681 37.5067 20.1558 37.5303 20.0427C37.5306 20.0411 37.5309 20.0395 37.5313 20.0379C37.5536 19.931 37.5736 19.8233 37.5919 19.7151C37.5943 19.7007 37.5968 19.6863 37.5991 19.6718C37.6356 19.449 37.6633 19.2235 37.6819 18.9955C37.683 18.9815 37.684 18.9674 37.6851 18.9533C37.6932 18.8463 37.6996 18.7388 37.7037 18.6306C37.704 18.6232 37.7045 18.6158 37.7047 18.6083C37.7089 18.4902 37.7107 18.3713 37.7099 18.2518C37.7099 18.2469 37.7097 18.2418 37.7097 18.2368C37.709 18.1256 37.7056 18.0144 37.7005 17.9027ZM26.4398 8.04453C26.435 8.04891 26.4299 8.05292 26.4245 8.05648C26.3855 8.08424 26.3387 8.11036 26.3027 8.12127C26.324 8.10977 26.3453 8.09826 26.3667 8.08676L26.3921 8.0731L26.3985 8.06969L26.4017 8.06798C26.3669 8.09069 26.453 8.03488 26.4435 8.04119L26.4398 8.04453Z" fill="#00B1FF"/>
    <path d="M13.0779 22.9125C13.0727 22.8685 13.0657 22.8239 13.0549 22.7776C12.0923 18.6715 9.84858 17.197 7.48456 16.3842C5.2839 15.6275 1.77046 15.19 1.87585 17.4539C4.98354 16.5827 11.3568 18.7412 13.0779 22.9125Z" fill="#EDEDE2"/>
    <path d="M6.37743 16.0625L5.9028 17.5851C5.89501 17.5831 5.88729 17.5812 5.8795 17.5793C5.82428 17.5658 5.76921 17.5529 5.71421 17.5402C5.69595 17.5361 5.67777 17.5319 5.65959 17.5278C5.63494 17.5223 5.61045 17.5172 5.58581 17.5117L6.05992 15.9907C6.1665 16.0133 6.27248 16.0372 6.37743 16.0625ZM4.84437 15.8038L4.37352 17.3143C4.39609 17.3167 4.41857 17.3188 4.44128 17.3214C4.46155 17.3237 4.48188 17.326 4.50229 17.3285C4.55276 17.3344 4.60338 17.3407 4.65429 17.3474C4.6698 17.3495 4.68546 17.3517 4.70105 17.3539L5.17316 15.8394C5.06294 15.8254 4.95325 15.8135 4.84437 15.8038ZM7.48433 16.3842C7.39823 16.3546 7.30991 16.3256 7.22003 16.2971L6.74452 17.8226C6.80315 17.8413 6.86186 17.8606 6.92049 17.8802C6.934 17.8848 6.9475 17.8892 6.96101 17.8937C6.99144 17.9041 7.02187 17.9148 7.0523 17.9254L7.52789 16.3996C7.51335 16.3945 7.49888 16.3892 7.48433 16.3842ZM3.59757 15.8066L3.14171 17.269C3.15181 17.2685 3.16183 17.2681 3.17192 17.2678C3.21527 17.2662 3.25891 17.2651 3.30284 17.2643C3.32288 17.2639 3.34307 17.2638 3.36318 17.2636C3.40304 17.2633 3.44304 17.2631 3.48327 17.2633L3.94587 15.7792C3.82675 15.7844 3.71038 15.7934 3.59757 15.8066ZM12.2754 20.4927L12.0497 21.2167C12.0717 21.2436 12.0941 21.2702 12.1157 21.2974C12.1169 21.2989 12.118 21.3005 12.1192 21.3019C12.1786 21.3767 12.2358 21.4527 12.2921 21.5293L12.4745 20.9439C12.4104 20.7886 12.3442 20.6379 12.2754 20.4927ZM11.6528 19.393C11.5757 19.2788 11.4963 19.1699 11.4157 19.0635L11.062 20.1982C11.1521 20.2774 11.2397 20.3585 11.3262 20.4406L11.6528 19.393ZM10.677 18.2314C10.5902 18.1481 10.5026 18.067 10.4134 17.9896L9.97615 19.3672C10.0703 19.4302 10.1636 19.4941 10.2554 19.5597L10.677 18.2314ZM2.1411 16.482L1.87361 17.3401C1.87332 17.3775 1.87384 17.4155 1.87569 17.4544C1.90196 17.4472 1.92816 17.44 1.95481 17.4331C1.9718 17.4286 1.98873 17.4242 2.00595 17.4199C2.04179 17.4111 2.07816 17.4027 2.11482 17.3946C2.13316 17.3905 2.15164 17.3866 2.17019 17.3827C2.18073 17.3805 2.19149 17.3786 2.20211 17.3764L2.60185 16.0939C2.41667 16.1952 2.26081 16.3236 2.1411 16.482ZM9.6651 17.4239C9.57143 17.3621 9.47688 17.3027 9.38143 17.2455L8.90873 18.7308C9.00611 18.7823 9.10267 18.8354 9.19863 18.8895L9.6651 17.4239ZM8.61802 16.8398C8.51931 16.7934 8.42 16.7488 8.32018 16.7059L7.83783 18.2257C7.93795 18.2676 8.0377 18.3107 8.13708 18.3552L8.61802 16.8398Z" fill="#D6D3C5"/>
    <path d="M18.039 24.9131C18.5047 24.9131 18.883 25.2905 18.883 25.7578V26.7948C18.883 27.2613 18.5047 27.6396 18.039 27.6396C17.5726 27.6396 17.1943 27.2613 17.1943 26.7948V25.7578C17.1943 25.2905 17.5725 24.9131 18.039 24.9131Z" fill="#2B3B47"/>
    </g>
    <defs>
    <clipPath id="clip0_35_715">
    <rect width="38" height="38" fill="white"/>
    </clipPath>
    </defs>
    </svg>
    